<?xml version="1.0" encoding="utf-8"?>
<!-- Generator: Adobe Illustrator 27.0.0, SVG Export Plug-In . SVG Version: 6.00 Build 0)  -->
<svg version="1.1" id="Layer_1" xmlns="http://www.w3.org/2000/svg" xmlns:xlink="http://www.w3.org/1999/xlink" x="0px" y="0px"
	 viewBox="0 0 1920 500" style="enable-background:new 0 0 1920 500;" xml:space="preserve">
<style type="text/css">
	.st0{fill:none;}
	.st1{fill:#FF386A;}
	.st2{fill:#FF3668;}
	.st3{fill:#FF3A6C;}
	.st4{fill:#FF3B6C;}
	.st5{fill:#FF3C6D;}
	.st6{fill:#FF3D6E;}
	.st7{fill:#FF3B6D;}
	.st8{fill:#FF3C6E;}
</style>
<path class="st0" d="M1046,501c-112,0-223.5,0-335,0c0-166.7,0-333.3,0-500c166.7,0,333.3,0,500,0c0,166.7,0,333.3,0,500
	C1156.2,501,1101.3,501,1046,501 M973.8,165.1c11.1-6.6,21.8-14.1,33.5-19.5c22.3-10.3,45.6-14.3,70-8c21.9,5.7,37.9,17.7,45.1,39.8
	c0.5,1.6,1.9,3,2.9,4.4c3.1-11.6-0.4-20.9-7.8-29.1c-12.1-13.5-27.1-21.2-45.1-24c-14.8-2.3-29.3-1.9-43.8,1.2
	c-16.9,3.6-32.2,10.9-46.6,20.2c-5.8,3.7-11.5,7.6-17.4,11.4c-1.2-1.7-2-2.9-2.9-4.2C950.2,140,937,124,920,111.3
	C904.9,100,888,92.6,869.5,90.5c-21.4-2.5-42.2,1-60.6,13.2c-22.2,14.6-37.2,33.5-31.5,62c1.5,7.5,6.3,14.4,10,21.3
	c0.5,0.9,3.5,1.4,4.5,0.8c1.1-0.7,1.5-3,1.4-4.5c0-1.2-1.2-2.3-1.9-3.4c-4.3-7.2-7.5-14.8-7.6-23.3c-0.4-17.8,8.7-31,22.1-41.3
	c19-14.5,40.6-20.1,64.6-16.5c20,3,37,11.7,52.1,24.7c15.2,13.1,27.3,28.8,37.2,46.2c1.6,2.8,3.4,2.9,5.7,1.4
	C968.1,169.3,970.6,167.4,973.8,165.1 M1078.9,343.4c-15.5,11.6-30.9,23.3-46.7,34.7c-22.5,16.2-46.3,30.2-72.2,40.4
	c-7.4,2.9-15.1,3.6-22.9,2c-19.2-4-32.7-16.9-44.5-31c-14.1-16.8-26.7-35-40.2-52.4c-5.9-7.6-12.2-14.8-18.4-22.1
	c-0.6,0.1-1.1,0.2-1.7,0.4c-0.1,1.5-0.8,3.2-0.3,4.4c1.6,3.6,3.3,7.3,5.6,10.5c9.7,13.4,19.6,26.7,29.5,40
	c12.7,17,25.6,34,43.1,46.5c15.9,11.4,33.3,16.2,52.5,9.1c20-7.4,38.9-17.4,56.3-29.5c23.8-16.5,47.2-33.7,70.1-51.4
	c8.3-6.4,15-15,21.9-22.9c1.2-1.4,1.3-5.6,0.1-6.8c-2.4-2.5-4.3,0.1-6.3,2.1C1096.6,326,1088,334.4,1078.9,343.4 M781.2,271.5
	c0,3.3-0.1,6.7,0,10c0,7.6,2.8,9.3,9.6,6.5c0-17.1,0-33.9,0-51.4c1.7,3.9,3.2,7.2,4.5,10.7c4.6,12.2,9.2,24.5,13.8,36.7
	c1.3,3.6,3.5,5.2,7.5,5c3.8-0.2,3.9-3.1,4.7-5.5c3.2-9.7,6.3-19.5,9.6-29.2c2.1-6.1,4.6-12.1,7-18.2c1.3,1.2,1.4,2.1,1.4,3
	c0,13.8,0,27.7-0.1,41.5c-0.1,8.5,1.3,9.6,9.7,7.8c0-7.3-0.1-14.6,0-21.8c0.3-14.1,0.7-28.2,0.9-42.3c0-2.1,0.1-6-0.5-6.1
	c-2.9-0.7-6.4-1.1-9.2-0.2c-2,0.6-4,3.2-5,5.3c-6.1,14.1-11.9,28.3-17.8,42.6c-0.9,2.2-1.4,4.5-2.4,8c-1.1-2.9-1.6-4.3-2.1-5.7
	c-4.9-12.8-9.4-25.8-14.7-38.5c-2.7-6.4-5.3-13.7-15-12.5c-3.5,0.4-4.1,1.5-3.6,4.7c0.8,5.2,1.5,10.5,1.7,15.7
	C781.3,248.5,781.2,259.5,781.2,271.5 M1082.6,263.1c6.2-6.7,5-17,0.8-21.4c-5.6-6-13.7-6-26.3,0.4c0-5.4-0.1-10.6,0-15.9
	c0.1-3.8,0.5-7.6,0.6-11.4c0.1-4.4-2.5-5.4-6.4-5.6c-4.6-0.3-4.3,2.6-4.1,5.4c0.2,3.3,0.9,6.6,0.9,9.9c0.1,18.6,0,37.3,0,55.9
	c0,1.8-0.2,3.7,0.2,5.5c1.2,4.5,5,3,7.9,2.8c0.9-0.1,2.4-2.1,2.3-3.2c-0.4-8.7-1.4-17.5-1.7-26.2c-0.3-9.1,1.7-11.6,10.7-13.5
	c2.4-0.5,6.3-0.1,7.4,1.5c1.6,2.1,2.1,6,1.4,8.6c-1.7,5.9-6.4,7.4-15.4,5.8c-2.1,2.4-2.3,4.3,0.8,6.4c1.8,1.2,2.7,3.6,4,5.5
	c3.3,4.6,6.3,9.4,9.9,13.6c2.8,3.3,8.7,3.7,11.9,1.4c1.1-0.8,2-2.7,2-4c0-1.1-1.6-3.1-2.4-3.1c-9,0.2-9.9-7.8-13.9-12.3
	C1076.6,267.1,1079.3,265.3,1082.6,263.1 M863.2,245c0,9.8,0,19.6,0.1,29.5c0.1,8.1,4.1,14.2,11.1,14.9c5.3,0.5,10.8-0.6,16-1.7
	c2.7-0.6,4.6-2,7.5,0.4c1.6,1.3,5,0.5,7.3,0.6c-0.5-7.8-1.2-14.5-1.3-21.2c-0.2-8.2-0.1-16.3,0-24.5c0.1-4.3-2.5-4.7-5.8-4.8
	c-3.7-0.2-3.9,1.9-3.9,4.7c0.1,10.3,0,20.7-0.1,31c0,1.4-0.2,3.1-0.9,4.2c-2,2.9-10.9,5.2-14.3,3.9c-5-1.9-6.2-5.9-6.1-10.8
	c0.2-9.2,0.2-18.3,0.1-27.5c-0.1-4.4-3.3-6.3-8.2-5.3C860.5,239.1,862.5,241.8,863.2,245 M980.8,266.5c0-7.5-0.1-15,0-22.5
	c0-4.3-2.1-5.9-6.2-5.9c-4.4-0.1-3.5,2.9-3.5,5.5c0,10,0.1,20,0,29.9c0,1.3,0,2.8-0.6,3.9c-1.9,3.1-10.8,5.7-14.6,4.6
	c-4.4-1.3-6.4-5.1-6.3-11.2c0.1-9.1,0.2-18.3,0.1-27.4c-0.1-4.1-2.9-5.8-7.8-5.2c-4.5,0.6-2.4,3.7-2.3,6.1c0.1,1.8,0.5,3.6,0.5,5.4
	c0.1,8.5,0,17,0,25.5c0.1,9.2,5.5,14.9,14.5,14.5c5.6-0.3,11.2-1.8,15.7-2.6c3.8,0.6,6.9,1.1,10,1.6c0.2-2.6,0.6-5.1,0.6-7.7
	C981.1,276.5,980.9,272,980.8,266.5 M987.9,240.5c-1.2,5.2-1.2,5.2,7.3,5.9c0,11.4,0,22.9,0,34.3c0,8,3.4,10.1,10.5,7.3
	c0-14.1,0-27.9,0-42.4c2.9,0,6.3,0.5,9.4-0.2c1.8-0.4,3.1-2.9,4.6-4.5c-1.7-0.9-3.2-2.5-5-2.7c-3.2-0.4-6.5-0.1-9.6-0.1
	c-1.4-18,2.9-21.8,16.2-15.5c3.4-3.9,3.6-7.4,0.5-9.2c-8.7-5.1-21.8,0-24.2,9.8c-1.2,4.8-1.4,9.7-2,14.2
	C993.1,238.4,990.8,239.1,987.9,240.5 M916.2,211.7c0.3,4.3,0.9,8.6,0.9,12.8c0.1,19.1,0,38.3,0,57.4c0,1.3-0.3,2.8,0.1,4
	c1.3,4.4,5.1,2.9,8,2.7c0.9-0.1,2.4-2.5,2.3-3.8c-0.4-8.2-1.6-16.5-1.6-24.7c-0.1-14.9,0.6-29.9,0.7-44.8c0-1.9-1.4-5.2-2.8-5.5
	C921.6,209.2,918.8,210.4,916.2,211.7 M1120.2,283.9c0,0.2,0,0.3,0,0.5c1,5.1,4.9,5.1,8.5,4.2c3.8-0.9,1.3-3.9,1.2-6.1
	c-0.5-8.9-1.1-17.9-1-26.8c0.1-6.2,7.3-10.6,13.2-8.7c1,0.3,3.1,0.1,3.3-0.4c0.7-1.9,1.6-4.4,0.9-6.1c-0.6-1.5-3.4-3.4-4.9-3.1
	c-3.9,0.7-7.6,2.5-11.6,4c-2.1-3.9-5.9-4.1-9.7-2.8C1120.2,253.8,1120.2,268.4,1120.2,283.9 M1026.3,284.9c1,5.5,5.3,4.2,8.6,3.6
	c0.7-0.1,0.9-3.6,1.1-5.6c0.2-1.3,0-2.6,0-4c-0.1-11.6-0.1-23.3-0.2-34.9c0-4.7-2.5-6.5-7.6-5.8c-4.6,0.6-2.6,3.4-2.2,5.9
	c0.3,2.3,0.3,4.6,0.3,7C1026.2,262,1026.2,273,1026.3,284.9 M1098.5,239.2c-0.1,14.6-0.2,29.2-0.2,43.8c0,1.2,0.4,3.2,1.2,3.6
	c2.4,1.1,5,1.7,7.6,1.9c0.5,0,1.7-3.1,1.6-4.8c-0.1-12.4-0.8-24.8-0.7-37.2C1108,238.3,1107.3,237.4,1098.5,239.2 M1027.6,221.8
	c-2.9,2-4.5,4.8-2.9,8.1c0.8,1.6,2.7,3.4,4.5,3.8c4.6,1,7.6-1.7,7.7-6C1036.8,223.3,1033.9,221.1,1027.6,221.8 M1097.5,224
	c-2.5,3.7-1.2,7,2.1,8.8c1.8,1,6.2,0.9,7-0.3c1.5-2.1,2-5.8,1.2-8.3C1106.7,220.4,1102.8,220.3,1097.5,224z"/>
<path class="st1" d="M973.5,165.3c-2.8,2.1-5.3,4-7.9,5.7c-2.3,1.5-4.2,1.3-5.7-1.4c-9.8-17.4-22-33.1-37.2-46.2
	c-15.1-13-32.1-21.7-52.1-24.7c-23.9-3.6-45.5,2-64.6,16.5c-13.4,10.2-22.5,23.4-22.1,41.3c0.2,8.5,3.3,16.1,7.6,23.3
	c0.7,1.1,1.9,2.3,1.9,3.4c0,1.6-0.4,3.8-1.4,4.5c-1,0.6-4,0.1-4.5-0.8c-3.7-7-8.5-13.8-10-21.3c-5.8-28.5,9.2-47.4,31.5-62
	c18.4-12.1,39.1-15.6,60.6-13.2c18.5,2.2,35.4,9.5,50.4,20.8c17,12.7,30.2,28.8,41.8,46.3c0.8,1.2,1.7,2.5,2.9,4.2
	c5.8-3.8,11.6-7.7,17.4-11.4c14.4-9.3,29.8-16.6,46.6-20.2c14.5-3.1,29-3.6,43.8-1.2c18,2.8,33,10.5,45.1,24
	c7.3,8.2,10.8,17.5,7.8,29.1c-1-1.5-2.4-2.8-2.9-4.4c-7.3-22.1-23.2-34.1-45.1-39.8c-24.5-6.3-47.8-2.4-70,8
	C995.6,151,984.9,158.6,973.5,165.3z"/>
<path class="st2" d="M1079.2,343.2c8.8-8.8,17.4-17.2,25.7-25.9c2-2.1,3.9-4.7,6.3-2.1c1.2,1.2,1.1,5.5-0.1,6.8
	c-7,8-13.6,16.5-21.9,22.9c-22.9,17.7-46.3,34.9-70.1,51.4c-17.5,12.1-36.3,22.1-56.3,29.5c-19.2,7.1-36.6,2.3-52.5-9.1
	c-17.5-12.5-30.4-29.5-43.1-46.5c-9.9-13.2-19.8-26.5-29.5-40c-2.3-3.2-4-6.9-5.6-10.5c-0.5-1.2,0.1-2.9,0.3-4.4
	c0.6-0.1,1.1-0.2,1.7-0.4c6.1,7.4,12.5,14.6,18.4,22.1c13.5,17.4,26.1,35.6,40.2,52.4c11.9,14.1,25.3,27,44.5,31
	c7.8,1.6,15.5,1,22.9-2c25.9-10.2,49.7-24.2,72.2-40.4C1048,366.8,1063.4,355,1079.2,343.2z"/>
<path class="st3" d="M781.2,271c0-11.5,0.2-22.5-0.1-33.5c-0.1-5.3-0.9-10.5-1.7-15.7c-0.5-3.1,0.1-4.2,3.6-4.7
	c9.7-1.2,12.3,6.1,15,12.5c5.3,12.7,9.9,25.6,14.7,38.5c0.5,1.4,1,2.8,2.1,5.7c1.1-3.6,1.6-5.9,2.4-8c5.8-14.2,11.7-28.5,17.8-42.6
	c0.9-2.1,2.9-4.7,5-5.3c2.8-0.9,6.2-0.5,9.2,0.2c0.6,0.1,0.6,4,0.5,6.1c-0.3,14.1-0.7,28.2-0.9,42.3c-0.1,7.2,0,14.5,0,21.8
	c-8.4,1.8-9.8,0.7-9.7-7.8c0.1-13.8,0.1-27.6,0.1-41.5c0-0.9-0.1-1.8-1.4-3c-2.3,6.1-4.8,12.1-7,18.2c-3.3,9.7-6.4,19.5-9.6,29.2
	c-0.8,2.4-0.8,5.2-4.7,5.5c-4,0.2-6.2-1.4-7.5-5c-4.5-12.3-9.1-24.5-13.8-36.7c-1.3-3.4-2.9-6.8-4.5-10.7c0,17.6,0,34.4,0,51.4
	c-6.8,2.8-9.6,1.1-9.6-6.5C781.1,278.2,781.1,274.8,781.2,271z"/>
<path class="st4" d="M1082.3,263.3c-3,2-5.8,3.8-9.1,5.9c4,4.5,5,12.5,13.9,12.3c0.8,0,2.4,2,2.4,3.1c0,1.4-0.9,3.2-2,4
	c-3.1,2.4-9.1,1.9-11.9-1.4c-3.6-4.3-6.6-9-9.9-13.6c-1.3-1.9-2.3-4.3-4-5.5c-3.1-2.1-2.9-4-0.8-6.4c9,1.6,13.8,0.1,15.4-5.8
	c0.7-2.6,0.2-6.5-1.4-8.6c-1.1-1.5-5-2-7.4-1.5c-9,1.9-11.1,4.4-10.7,13.5c0.3,8.7,1.3,17.5,1.7,26.2c0.1,1.1-1.4,3.1-2.3,3.2
	c-2.9,0.2-6.7,1.7-7.9-2.8c-0.5-1.7-0.2-3.6-0.2-5.5c0-18.6,0.1-37.3,0-55.9c0-3.3-0.6-6.6-0.9-9.9c-0.2-2.9-0.5-5.7,4.1-5.4
	c3.9,0.2,6.6,1.2,6.4,5.6c-0.1,3.8-0.6,7.6-0.6,11.4c-0.1,5.2,0,10.5,0,15.9c12.6-6.4,20.7-6.3,26.3-0.4
	C1087.6,246.1,1088.8,256.4,1082.3,263.3z"/>
<path class="st5" d="M863.1,244.5c-0.6-2.7-2.6-5.4,1.6-6.3c4.9-1,8.1,0.9,8.2,5.3c0.1,9.2,0.1,18.3-0.1,27.5
	c-0.1,5,1.1,8.9,6.1,10.8c3.5,1.3,12.4-1,14.3-3.9c0.8-1.1,0.9-2.8,0.9-4.2c0.1-10.3,0.2-20.7,0.1-31c0-2.8,0.1-4.9,3.9-4.7
	c3.4,0.1,5.9,0.5,5.8,4.8c-0.1,8.2-0.3,16.3,0,24.5c0.2,6.7,0.8,13.5,1.3,21.2c-2.3-0.1-5.7,0.7-7.3-0.6c-2.9-2.3-4.8-1-7.5-0.4
	c-5.2,1.1-10.8,2.2-16,1.7c-7-0.7-11-6.9-11.1-14.9C863.2,264.6,863.2,254.8,863.1,244.5z"/>
<path class="st5" d="M980.8,267c0.1,5,0.3,9.5,0.2,14c0,2.6-0.4,5.1-0.6,7.7c-3.1-0.5-6.2-1-10-1.6c-4.5,0.8-10.1,2.3-15.7,2.6
	c-9,0.5-14.4-5.3-14.5-14.5c-0.1-8.5,0-17,0-25.5c0-1.8-0.4-3.6-0.5-5.4c-0.2-2.4-2.3-5.4,2.3-6.1c4.9-0.7,7.7,1,7.8,5.2
	c0.1,9.1,0.1,18.3-0.1,27.4c-0.1,6.1,1.9,9.8,6.3,11.2c3.8,1.2,12.7-1.5,14.6-4.6c0.6-1,0.6-2.6,0.6-3.9c0-10,0-20,0-29.9
	c0-2.6-1-5.6,3.5-5.5c4.1,0.1,6.2,1.6,6.2,5.9C980.7,251.5,980.8,259,980.8,267z"/>
<path class="st5" d="M988.2,240.2c2.6-1.1,4.9-1.9,7.4-2.7c0.6-4.5,0.8-9.5,2-14.2c2.4-9.8,15.5-14.9,24.2-9.8
	c3.1,1.8,2.9,5.3-0.5,9.2c-13.3-6.3-17.6-2.5-16.2,15.5c3.2,0,6.5-0.3,9.6,0.1c1.7,0.2,3.3,1.8,5,2.7c-1.5,1.6-2.8,4-4.6,4.5
	c-3.1,0.7-6.5,0.2-9.4,0.2c0,14.5,0,28.3,0,42.4c-7.1,2.7-10.5,0.6-10.5-7.3c0-11.4,0-22.9,0-34.3
	C986.7,245.7,986.7,245.7,988.2,240.2z"/>
<path class="st6" d="M916.3,211.3c2.6-0.9,5.3-2.1,7.6-1.5c1.4,0.4,2.8,3.6,2.8,5.5c-0.1,14.9-0.8,29.9-0.7,44.8
	c0,8.2,1.2,16.5,1.6,24.7c0.1,1.3-1.4,3.7-2.3,3.8c-2.9,0.2-6.6,1.7-8-2.7c-0.4-1.2-0.1-2.6-0.1-4c0-19.1,0.1-38.3,0-57.4
	C917.1,220.3,916.6,216,916.3,211.3z"/>
<path class="st7" d="M1120.2,283.5c0-15,0-29.6,0-44.8c3.7-1.3,7.6-1.1,9.7,2.8c4.1-1.5,7.7-3.3,11.6-4c1.5-0.3,4.2,1.6,4.9,3.1
	c0.7,1.7-0.2,4.1-0.9,6.1c-0.2,0.5-2.3,0.7-3.3,0.4c-5.8-1.9-13.1,2.5-13.2,8.7c-0.1,8.9,0.5,17.9,1,26.8c0.1,2.2,2.5,5.2-1.2,6.1
	c-3.6,0.9-7.5,0.9-8.5-4.2C1120.2,284.3,1120.2,284.1,1120.2,283.5z"/>
<path class="st6" d="M1026.2,284.4c0-11.4,0-22.4,0-33.4c0-2.3,0-4.7-0.3-7c-0.3-2.5-2.4-5.4,2.2-5.9c5.1-0.6,7.6,1.1,7.6,5.8
	c0.1,11.6,0.1,23.3,0.2,34.9c0,1.3,0.2,2.7,0,4c-0.2,2-0.4,5.5-1.1,5.6C1031.5,289,1027.3,290.4,1026.2,284.4z"/>
<path class="st6" d="M1098.8,238.9c8.5-1.5,9.2-0.6,9.2,7.6c0,12.4,0.6,24.8,0.7,37.2c0,1.7-1.2,4.8-1.6,4.8
	c-2.6-0.2-5.2-0.8-7.6-1.9c-0.8-0.4-1.2-2.4-1.2-3.6C1098.3,268.4,1098.4,253.8,1098.8,238.9z"/>
<path class="st6" d="M1027.9,221.6c6-0.5,8.9,1.6,8.9,6c-0.1,4.3-3.1,7-7.7,6c-1.7-0.4-3.7-2.1-4.5-3.8
	C1023.1,226.6,1024.7,223.9,1027.9,221.6z"/>
<path class="st8" d="M1097.7,223.7c5-3.4,9-3.4,10.1,0.5c0.7,2.5,0.2,6.2-1.2,8.3c-0.8,1.2-5.2,1.4-7,0.3
	C1096.4,231.1,1095.1,227.7,1097.7,223.7z"/>
</svg>
